<?xml version="1.0" standalone="no"?>
<!DOCTYPE svg PUBLIC "-//W3C//DTD SVG 20010904//EN"
 "http://www.w3.org/TR/2001/REC-SVG-20010904/DTD/svg10.dtd">
<svg version="1.0" xmlns="http://www.w3.org/2000/svg"
 width="500.000000pt" height="500.000000pt" viewBox="0 0 500.000000 500.000000"
 preserveAspectRatio="xMidYMid meet">
<metadata>
Created by potrace 1.11, written by Peter Selinger 2001-2013
</metadata>
<g transform="translate(0.000000,500.000000) scale(0.100000,-0.100000)"
fill="#000000" stroke="none">
<path d="M0 2500 l0 -2500 2500 0 2500 0 0 2500 0 2500 -2500 0 -2500 0 0
-2500z m1640 2310 c112 -32 220 -93 301 -169 38 -37 72 -65 73 -62 2 3 7 42
11 86 3 44 9 90 12 103 l5 22 289 0 289 0 0 -630 0 -630 175 0 175 0 0 -606 0
-606 64 59 c158 144 334 202 576 190 217 -11 388 -81 530 -214 233 -219 335
-500 347 -954 12 -460 -66 -771 -252 -1007 -112 -141 -256 -236 -430 -283
-108 -29 -357 -33 -454 -6 -152 42 -252 99 -357 205 -57 57 -64 62 -65 41 0
-13 -6 -69 -12 -124 l-12 -100 -293 -3 -294 -2 4 803 3 804 -70 -54 c-183
-139 -418 -216 -705 -230 -271 -13 -512 45 -747 178 -95 55 -242 191 -226 211
6 7 66 90 133 183 67 94 128 176 134 183 11 11 24 3 71 -42 99 -96 208 -158
335 -193 91 -24 293 -24 375 1 177 53 285 162 330 333 19 69 33 293 18 293 -5
0 -25 -16 -44 -36 -54 -58 -172 -130 -257 -158 -111 -37 -210 -49 -332 -43
-244 14 -420 95 -591 274 -161 168 -261 388 -305 670 -23 147 -23 459 0 606
74 475 337 814 703 906 112 29 123 30 278 26 106 -3 158 -9 215 -25z"/>
<path d="M1460 4306 c-132 -29 -232 -112 -299 -248 -73 -149 -96 -290 -88
-538 6 -187 23 -268 82 -387 103 -209 292 -298 527 -248 123 26 201 75 270
169 l28 39 0 502 0 502 -28 39 c-104 142 -303 212 -492 170z"/>
<path d="M3280 2039 c-114 -19 -219 -90 -281 -188 l-29 -45 0 -478 c0 -545 -4
-516 89 -607 91 -89 213 -128 371 -119 200 12 334 134 385 349 36 158 44 502
15 664 -51 280 -184 419 -415 430 -44 2 -105 0 -135 -6z"/>
</g>
</svg>
